<svg width="35" height="32" viewBox="0 0 35 32" fill="none" xmlns="http://www.w3.org/2000/svg">
<path d="M9.99026 0.25C4.15156 0.25 0.25 5.11997 0.25 10.5401C0.25 15.6253 3.09299 20.0208 6.56909 23.4893C10.0452 26.9579 14.1934 29.5292 17.0399 31.0213C17.2616 31.1356 17.5242 31.1356 17.7458 31.0213C20.5923 29.5292 24.7405 26.9579 28.2166 23.4893C31.6927 20.0208 34.5357 15.6253 34.5357 10.5401C34.5357 5.11997 30.6342 0.25 24.7955 0.25C21.3536 0.25 19.067 2.03256 17.3929 4.44281C15.7187 2.03256 13.4321 0.25 9.99026 0.25ZM9.99026 1.83309C13.3281 1.83309 15.1569 3.52462 16.7231 6.18658C16.9432 6.56217 17.4217 6.68565 17.7914 6.46203C17.9029 6.39475 17.996 6.30016 18.0626 6.18658C19.6288 3.52462 21.4581 1.83309 24.7955 1.83309C29.7934 1.83309 32.9773 5.87273 32.9773 10.5401C32.9773 15.0218 30.43 19.0496 27.121 22.3515C23.9325 25.5331 20.1225 27.9528 17.3929 29.4136C14.6632 27.9532 10.8532 25.5331 7.66467 22.3515C4.35571 19.0496 1.80844 15.0218 1.80844 10.5401C1.80844 5.87273 4.99234 1.83309 9.99026 1.83309Z" fill="#000AFF" stroke="#000AFF" stroke-width="0.5"/>
</svg>
